<mxfile host="app.diagrams.net" agent="Mozilla/5.0 (Windows NT 10.0; Win64; x64) AppleWebKit/537.36 (KHTML, like Gecko) Chrome/128.0.0.0 Safari/537.36 Edg/128.0.0.0" version="24.7.10">
  <diagram name="Página-1" id="PFkrtEIG0thtpLAXqVk5">
    <mxGraphModel dx="2222" dy="855" grid="1" gridSize="10" guides="1" tooltips="1" connect="1" arrows="1" fold="1" page="1" pageScale="1" pageWidth="827" pageHeight="1169" math="0" shadow="0">
      <root>
        <mxCell id="0" />
        <mxCell id="1" parent="0" />
        <mxCell id="nCwtWXwidrHt-UqhxLMC-1" value="Cliente" style="whiteSpace=wrap;html=1;align=center;" vertex="1" parent="1">
          <mxGeometry x="40" y="450" width="100" height="40" as="geometry" />
        </mxCell>
        <mxCell id="nCwtWXwidrHt-UqhxLMC-2" value="Fornecedor" style="whiteSpace=wrap;html=1;align=center;" vertex="1" parent="1">
          <mxGeometry x="400" y="720" width="100" height="40" as="geometry" />
        </mxCell>
        <mxCell id="nCwtWXwidrHt-UqhxLMC-3" value="Serviço" style="whiteSpace=wrap;html=1;align=center;" vertex="1" parent="1">
          <mxGeometry x="40" y="720" width="100" height="40" as="geometry" />
        </mxCell>
        <mxCell id="nCwtWXwidrHt-UqhxLMC-4" value="Pedido" style="whiteSpace=wrap;html=1;align=center;" vertex="1" parent="1">
          <mxGeometry x="400" y="450" width="100" height="40" as="geometry" />
        </mxCell>
        <mxCell id="nCwtWXwidrHt-UqhxLMC-5" value="Pagamento" style="whiteSpace=wrap;html=1;align=center;" vertex="1" parent="1">
          <mxGeometry x="690" y="570" width="100" height="40" as="geometry" />
        </mxCell>
        <mxCell id="nCwtWXwidrHt-UqhxLMC-6" value="Banco" style="whiteSpace=wrap;html=1;align=center;" vertex="1" parent="1">
          <mxGeometry x="460" y="200" width="100" height="40" as="geometry" />
        </mxCell>
        <mxCell id="nCwtWXwidrHt-UqhxLMC-7" value="Cobrança" style="whiteSpace=wrap;html=1;align=center;" vertex="1" parent="1">
          <mxGeometry x="40" y="200" width="100" height="40" as="geometry" />
        </mxCell>
        <mxCell id="nCwtWXwidrHt-UqhxLMC-8" value="Item_Pedido" style="shape=associativeEntity;whiteSpace=wrap;html=1;align=center;" vertex="1" parent="1">
          <mxGeometry x="210" y="580" width="140" height="70" as="geometry" />
        </mxCell>
        <mxCell id="nCwtWXwidrHt-UqhxLMC-9" value="Realiza/Pertence" style="shape=rhombus;perimeter=rhombusPerimeter;whiteSpace=wrap;html=1;align=center;" vertex="1" parent="1">
          <mxGeometry x="220" y="440" width="120" height="60" as="geometry" />
        </mxCell>
        <mxCell id="nCwtWXwidrHt-UqhxLMC-10" value="" style="endArrow=none;html=1;rounded=0;entryX=0;entryY=0.5;entryDx=0;entryDy=0;exitX=1;exitY=0.5;exitDx=0;exitDy=0;" edge="1" parent="1" source="nCwtWXwidrHt-UqhxLMC-9" target="nCwtWXwidrHt-UqhxLMC-4">
          <mxGeometry relative="1" as="geometry">
            <mxPoint x="230" y="380" as="sourcePoint" />
            <mxPoint x="390" y="380" as="targetPoint" />
          </mxGeometry>
        </mxCell>
        <mxCell id="nCwtWXwidrHt-UqhxLMC-11" value="N" style="resizable=0;html=1;whiteSpace=wrap;align=right;verticalAlign=bottom;" connectable="0" vertex="1" parent="nCwtWXwidrHt-UqhxLMC-10">
          <mxGeometry x="1" relative="1" as="geometry" />
        </mxCell>
        <mxCell id="nCwtWXwidrHt-UqhxLMC-12" value="" style="endArrow=none;html=1;rounded=0;entryX=1;entryY=0.5;entryDx=0;entryDy=0;" edge="1" parent="1" source="nCwtWXwidrHt-UqhxLMC-9" target="nCwtWXwidrHt-UqhxLMC-1">
          <mxGeometry relative="1" as="geometry">
            <mxPoint x="230" y="380" as="sourcePoint" />
            <mxPoint x="390" y="380" as="targetPoint" />
          </mxGeometry>
        </mxCell>
        <mxCell id="nCwtWXwidrHt-UqhxLMC-13" value="1" style="resizable=0;html=1;whiteSpace=wrap;align=right;verticalAlign=bottom;" connectable="0" vertex="1" parent="nCwtWXwidrHt-UqhxLMC-12">
          <mxGeometry x="1" relative="1" as="geometry">
            <mxPoint x="10" as="offset" />
          </mxGeometry>
        </mxCell>
        <mxCell id="nCwtWXwidrHt-UqhxLMC-14" value="" style="endArrow=none;html=1;rounded=0;entryX=1;entryY=0;entryDx=0;entryDy=0;exitX=0.25;exitY=1;exitDx=0;exitDy=0;" edge="1" parent="1" source="nCwtWXwidrHt-UqhxLMC-4" target="nCwtWXwidrHt-UqhxLMC-8">
          <mxGeometry relative="1" as="geometry">
            <mxPoint x="230" y="420" as="sourcePoint" />
            <mxPoint x="390" y="420" as="targetPoint" />
          </mxGeometry>
        </mxCell>
        <mxCell id="nCwtWXwidrHt-UqhxLMC-15" value="N" style="resizable=0;html=1;whiteSpace=wrap;align=left;verticalAlign=bottom;" connectable="0" vertex="1" parent="nCwtWXwidrHt-UqhxLMC-14">
          <mxGeometry x="-1" relative="1" as="geometry">
            <mxPoint x="-25" y="20" as="offset" />
          </mxGeometry>
        </mxCell>
        <mxCell id="nCwtWXwidrHt-UqhxLMC-16" value="N" style="resizable=0;html=1;whiteSpace=wrap;align=right;verticalAlign=bottom;" connectable="0" vertex="1" parent="nCwtWXwidrHt-UqhxLMC-14">
          <mxGeometry x="1" relative="1" as="geometry" />
        </mxCell>
        <mxCell id="nCwtWXwidrHt-UqhxLMC-18" value="" style="endArrow=none;html=1;rounded=0;entryX=1;entryY=0;entryDx=0;entryDy=0;exitX=0;exitY=1;exitDx=0;exitDy=0;" edge="1" parent="1" source="nCwtWXwidrHt-UqhxLMC-8" target="nCwtWXwidrHt-UqhxLMC-3">
          <mxGeometry relative="1" as="geometry">
            <mxPoint x="210" y="660" as="sourcePoint" />
            <mxPoint x="360" y="595" as="targetPoint" />
          </mxGeometry>
        </mxCell>
        <mxCell id="nCwtWXwidrHt-UqhxLMC-19" value="N" style="resizable=0;html=1;whiteSpace=wrap;align=left;verticalAlign=bottom;" connectable="0" vertex="1" parent="nCwtWXwidrHt-UqhxLMC-18">
          <mxGeometry x="-1" relative="1" as="geometry">
            <mxPoint x="-20" y="5" as="offset" />
          </mxGeometry>
        </mxCell>
        <mxCell id="nCwtWXwidrHt-UqhxLMC-20" value="N" style="resizable=0;html=1;whiteSpace=wrap;align=right;verticalAlign=bottom;" connectable="0" vertex="1" parent="nCwtWXwidrHt-UqhxLMC-18">
          <mxGeometry x="1" relative="1" as="geometry" />
        </mxCell>
        <mxCell id="nCwtWXwidrHt-UqhxLMC-21" value="Oferecido/Oferece" style="shape=rhombus;perimeter=rhombusPerimeter;whiteSpace=wrap;html=1;align=center;" vertex="1" parent="1">
          <mxGeometry x="210" y="710" width="120" height="60" as="geometry" />
        </mxCell>
        <mxCell id="nCwtWXwidrHt-UqhxLMC-22" value="" style="endArrow=none;html=1;rounded=0;entryX=0;entryY=0.5;entryDx=0;entryDy=0;exitX=1;exitY=0.5;exitDx=0;exitDy=0;" edge="1" parent="1" source="nCwtWXwidrHt-UqhxLMC-21" target="nCwtWXwidrHt-UqhxLMC-2">
          <mxGeometry relative="1" as="geometry">
            <mxPoint x="230" y="420" as="sourcePoint" />
            <mxPoint x="390" y="420" as="targetPoint" />
          </mxGeometry>
        </mxCell>
        <mxCell id="nCwtWXwidrHt-UqhxLMC-23" value="1" style="resizable=0;html=1;whiteSpace=wrap;align=right;verticalAlign=bottom;" connectable="0" vertex="1" parent="nCwtWXwidrHt-UqhxLMC-22">
          <mxGeometry x="1" relative="1" as="geometry" />
        </mxCell>
        <mxCell id="nCwtWXwidrHt-UqhxLMC-24" value="" style="endArrow=none;html=1;rounded=0;entryX=1;entryY=0.5;entryDx=0;entryDy=0;exitX=0;exitY=0.5;exitDx=0;exitDy=0;" edge="1" parent="1" source="nCwtWXwidrHt-UqhxLMC-21" target="nCwtWXwidrHt-UqhxLMC-3">
          <mxGeometry relative="1" as="geometry">
            <mxPoint x="350" y="480" as="sourcePoint" />
            <mxPoint x="410" y="480" as="targetPoint" />
          </mxGeometry>
        </mxCell>
        <mxCell id="nCwtWXwidrHt-UqhxLMC-25" value="N" style="resizable=0;html=1;whiteSpace=wrap;align=right;verticalAlign=bottom;" connectable="0" vertex="1" parent="nCwtWXwidrHt-UqhxLMC-24">
          <mxGeometry x="1" relative="1" as="geometry">
            <mxPoint x="10" as="offset" />
          </mxGeometry>
        </mxCell>
        <mxCell id="nCwtWXwidrHt-UqhxLMC-26" value="Possui" style="shape=rhombus;perimeter=rhombusPerimeter;whiteSpace=wrap;html=1;align=center;" vertex="1" parent="1">
          <mxGeometry x="530" y="490" width="120" height="60" as="geometry" />
        </mxCell>
        <mxCell id="nCwtWXwidrHt-UqhxLMC-27" value="" style="endArrow=none;html=1;rounded=0;entryX=0;entryY=0.5;entryDx=0;entryDy=0;exitX=1;exitY=0.5;exitDx=0;exitDy=0;" edge="1" parent="1" source="nCwtWXwidrHt-UqhxLMC-26" target="nCwtWXwidrHt-UqhxLMC-5">
          <mxGeometry relative="1" as="geometry">
            <mxPoint x="330" y="430" as="sourcePoint" />
            <mxPoint x="490" y="430" as="targetPoint" />
          </mxGeometry>
        </mxCell>
        <mxCell id="nCwtWXwidrHt-UqhxLMC-28" value="N" style="resizable=0;html=1;whiteSpace=wrap;align=right;verticalAlign=bottom;" connectable="0" vertex="1" parent="nCwtWXwidrHt-UqhxLMC-27">
          <mxGeometry x="1" relative="1" as="geometry">
            <mxPoint y="10" as="offset" />
          </mxGeometry>
        </mxCell>
        <mxCell id="nCwtWXwidrHt-UqhxLMC-29" value="" style="endArrow=none;html=1;rounded=0;entryX=1;entryY=0.5;entryDx=0;entryDy=0;exitX=0;exitY=0.5;exitDx=0;exitDy=0;" edge="1" parent="1" source="nCwtWXwidrHt-UqhxLMC-26" target="nCwtWXwidrHt-UqhxLMC-4">
          <mxGeometry relative="1" as="geometry">
            <mxPoint x="330" y="430" as="sourcePoint" />
            <mxPoint x="490" y="430" as="targetPoint" />
          </mxGeometry>
        </mxCell>
        <mxCell id="nCwtWXwidrHt-UqhxLMC-30" value="1" style="resizable=0;html=1;whiteSpace=wrap;align=right;verticalAlign=bottom;" connectable="0" vertex="1" parent="nCwtWXwidrHt-UqhxLMC-29">
          <mxGeometry x="1" relative="1" as="geometry">
            <mxPoint x="10" as="offset" />
          </mxGeometry>
        </mxCell>
        <mxCell id="nCwtWXwidrHt-UqhxLMC-31" value="Possui" style="shape=rhombus;perimeter=rhombusPerimeter;whiteSpace=wrap;html=1;align=center;" vertex="1" parent="1">
          <mxGeometry x="30" y="320" width="120" height="60" as="geometry" />
        </mxCell>
        <mxCell id="nCwtWXwidrHt-UqhxLMC-32" value="Processada/Processa" style="shape=rhombus;perimeter=rhombusPerimeter;whiteSpace=wrap;html=1;align=center;" vertex="1" parent="1">
          <mxGeometry x="240" y="177.5" width="140" height="85" as="geometry" />
        </mxCell>
        <mxCell id="nCwtWXwidrHt-UqhxLMC-33" value="" style="endArrow=none;html=1;rounded=0;entryX=0;entryY=0.5;entryDx=0;entryDy=0;exitX=1;exitY=0.5;exitDx=0;exitDy=0;" edge="1" parent="1" source="nCwtWXwidrHt-UqhxLMC-32" target="nCwtWXwidrHt-UqhxLMC-6">
          <mxGeometry relative="1" as="geometry">
            <mxPoint x="410" y="280" as="sourcePoint" />
            <mxPoint x="330" y="280" as="targetPoint" />
          </mxGeometry>
        </mxCell>
        <mxCell id="nCwtWXwidrHt-UqhxLMC-34" value="1" style="resizable=0;html=1;whiteSpace=wrap;align=right;verticalAlign=bottom;" connectable="0" vertex="1" parent="nCwtWXwidrHt-UqhxLMC-33">
          <mxGeometry x="1" relative="1" as="geometry">
            <mxPoint as="offset" />
          </mxGeometry>
        </mxCell>
        <mxCell id="nCwtWXwidrHt-UqhxLMC-39" value="" style="endArrow=none;html=1;rounded=0;entryX=1;entryY=0.5;entryDx=0;entryDy=0;exitX=0;exitY=0.5;exitDx=0;exitDy=0;" edge="1" parent="1" source="nCwtWXwidrHt-UqhxLMC-32" target="nCwtWXwidrHt-UqhxLMC-7">
          <mxGeometry relative="1" as="geometry">
            <mxPoint x="380" y="430" as="sourcePoint" />
            <mxPoint x="540" y="430" as="targetPoint" />
          </mxGeometry>
        </mxCell>
        <mxCell id="nCwtWXwidrHt-UqhxLMC-40" value="N" style="resizable=0;html=1;whiteSpace=wrap;align=right;verticalAlign=bottom;" connectable="0" vertex="1" parent="nCwtWXwidrHt-UqhxLMC-39">
          <mxGeometry x="1" relative="1" as="geometry">
            <mxPoint x="10" as="offset" />
          </mxGeometry>
        </mxCell>
        <mxCell id="nCwtWXwidrHt-UqhxLMC-41" value="" style="endArrow=none;html=1;rounded=0;entryX=0.5;entryY=1;entryDx=0;entryDy=0;exitX=0.5;exitY=0;exitDx=0;exitDy=0;" edge="1" parent="1" source="nCwtWXwidrHt-UqhxLMC-31" target="nCwtWXwidrHt-UqhxLMC-7">
          <mxGeometry relative="1" as="geometry">
            <mxPoint x="380" y="430" as="sourcePoint" />
            <mxPoint x="540" y="430" as="targetPoint" />
          </mxGeometry>
        </mxCell>
        <mxCell id="nCwtWXwidrHt-UqhxLMC-42" value="N" style="resizable=0;html=1;whiteSpace=wrap;align=right;verticalAlign=bottom;" connectable="0" vertex="1" parent="nCwtWXwidrHt-UqhxLMC-41">
          <mxGeometry x="1" relative="1" as="geometry">
            <mxPoint y="20" as="offset" />
          </mxGeometry>
        </mxCell>
        <mxCell id="nCwtWXwidrHt-UqhxLMC-43" value="" style="endArrow=none;html=1;rounded=0;entryX=0.5;entryY=0;entryDx=0;entryDy=0;exitX=0.5;exitY=1;exitDx=0;exitDy=0;" edge="1" parent="1" source="nCwtWXwidrHt-UqhxLMC-31" target="nCwtWXwidrHt-UqhxLMC-1">
          <mxGeometry relative="1" as="geometry">
            <mxPoint x="380" y="430" as="sourcePoint" />
            <mxPoint x="540" y="430" as="targetPoint" />
          </mxGeometry>
        </mxCell>
        <mxCell id="nCwtWXwidrHt-UqhxLMC-44" value="1" style="resizable=0;html=1;whiteSpace=wrap;align=right;verticalAlign=bottom;" connectable="0" vertex="1" parent="nCwtWXwidrHt-UqhxLMC-43">
          <mxGeometry x="1" relative="1" as="geometry" />
        </mxCell>
        <mxCell id="nCwtWXwidrHt-UqhxLMC-45" value="Id Cliente" style="ellipse;whiteSpace=wrap;html=1;align=center;fontStyle=4;" vertex="1" parent="1">
          <mxGeometry x="-50" y="370" width="100" height="40" as="geometry" />
        </mxCell>
        <mxCell id="nCwtWXwidrHt-UqhxLMC-46" value="Endereço" style="ellipse;whiteSpace=wrap;html=1;align=center;" vertex="1" parent="1">
          <mxGeometry x="-140" y="400" width="100" height="40" as="geometry" />
        </mxCell>
        <mxCell id="nCwtWXwidrHt-UqhxLMC-47" value="Nome" style="ellipse;whiteSpace=wrap;html=1;align=center;" vertex="1" parent="1">
          <mxGeometry x="-140" y="490" width="100" height="40" as="geometry" />
        </mxCell>
        <mxCell id="nCwtWXwidrHt-UqhxLMC-48" value="Cpf" style="ellipse;whiteSpace=wrap;html=1;align=center;" vertex="1" parent="1">
          <mxGeometry x="-220" y="450" width="100" height="40" as="geometry" />
        </mxCell>
        <mxCell id="nCwtWXwidrHt-UqhxLMC-49" value="Telefone" style="ellipse;whiteSpace=wrap;html=1;align=center;" vertex="1" parent="1">
          <mxGeometry x="-80" y="540" width="100" height="40" as="geometry" />
        </mxCell>
        <mxCell id="nCwtWXwidrHt-UqhxLMC-50" value="Email" style="ellipse;whiteSpace=wrap;html=1;align=center;" vertex="1" parent="1">
          <mxGeometry x="30" y="540" width="100" height="40" as="geometry" />
        </mxCell>
        <mxCell id="nCwtWXwidrHt-UqhxLMC-51" value="" style="endArrow=none;html=1;rounded=0;entryX=1;entryY=1;entryDx=0;entryDy=0;exitX=0.25;exitY=0;exitDx=0;exitDy=0;" edge="1" parent="1" source="nCwtWXwidrHt-UqhxLMC-1" target="nCwtWXwidrHt-UqhxLMC-45">
          <mxGeometry relative="1" as="geometry">
            <mxPoint x="90" y="430" as="sourcePoint" />
            <mxPoint x="250" y="430" as="targetPoint" />
          </mxGeometry>
        </mxCell>
        <mxCell id="nCwtWXwidrHt-UqhxLMC-52" value="" style="endArrow=none;html=1;rounded=0;entryX=1;entryY=0.5;entryDx=0;entryDy=0;exitX=0;exitY=0;exitDx=0;exitDy=0;" edge="1" parent="1" source="nCwtWXwidrHt-UqhxLMC-1" target="nCwtWXwidrHt-UqhxLMC-46">
          <mxGeometry relative="1" as="geometry">
            <mxPoint x="75" y="460" as="sourcePoint" />
            <mxPoint x="45" y="414" as="targetPoint" />
          </mxGeometry>
        </mxCell>
        <mxCell id="nCwtWXwidrHt-UqhxLMC-53" value="" style="endArrow=none;html=1;rounded=0;entryX=1;entryY=0.5;entryDx=0;entryDy=0;exitX=0;exitY=0.5;exitDx=0;exitDy=0;" edge="1" parent="1" source="nCwtWXwidrHt-UqhxLMC-1" target="nCwtWXwidrHt-UqhxLMC-48">
          <mxGeometry relative="1" as="geometry">
            <mxPoint x="85" y="470" as="sourcePoint" />
            <mxPoint x="55" y="424" as="targetPoint" />
          </mxGeometry>
        </mxCell>
        <mxCell id="nCwtWXwidrHt-UqhxLMC-54" value="" style="endArrow=none;html=1;rounded=0;entryX=1;entryY=0.5;entryDx=0;entryDy=0;exitX=0;exitY=0.75;exitDx=0;exitDy=0;" edge="1" parent="1" source="nCwtWXwidrHt-UqhxLMC-1" target="nCwtWXwidrHt-UqhxLMC-47">
          <mxGeometry relative="1" as="geometry">
            <mxPoint x="95" y="480" as="sourcePoint" />
            <mxPoint x="65" y="434" as="targetPoint" />
          </mxGeometry>
        </mxCell>
        <mxCell id="nCwtWXwidrHt-UqhxLMC-55" value="" style="endArrow=none;html=1;rounded=0;entryX=1;entryY=0;entryDx=0;entryDy=0;exitX=0;exitY=1;exitDx=0;exitDy=0;" edge="1" parent="1" source="nCwtWXwidrHt-UqhxLMC-1" target="nCwtWXwidrHt-UqhxLMC-49">
          <mxGeometry relative="1" as="geometry">
            <mxPoint x="105" y="490" as="sourcePoint" />
            <mxPoint x="75" y="444" as="targetPoint" />
          </mxGeometry>
        </mxCell>
        <mxCell id="nCwtWXwidrHt-UqhxLMC-56" value="" style="endArrow=none;html=1;rounded=0;entryX=0.28;entryY=0.025;entryDx=0;entryDy=0;exitX=0.25;exitY=1;exitDx=0;exitDy=0;entryPerimeter=0;" edge="1" parent="1" source="nCwtWXwidrHt-UqhxLMC-1" target="nCwtWXwidrHt-UqhxLMC-50">
          <mxGeometry relative="1" as="geometry">
            <mxPoint x="115" y="500" as="sourcePoint" />
            <mxPoint x="85" y="454" as="targetPoint" />
          </mxGeometry>
        </mxCell>
        <mxCell id="nCwtWXwidrHt-UqhxLMC-57" value="Id Fornecedor" style="ellipse;whiteSpace=wrap;html=1;align=center;fontStyle=4;" vertex="1" parent="1">
          <mxGeometry x="520" y="640" width="100" height="40" as="geometry" />
        </mxCell>
        <mxCell id="nCwtWXwidrHt-UqhxLMC-58" value="Nome" style="ellipse;whiteSpace=wrap;html=1;align=center;" vertex="1" parent="1">
          <mxGeometry x="620" y="670" width="100" height="40" as="geometry" />
        </mxCell>
        <mxCell id="nCwtWXwidrHt-UqhxLMC-59" value="Contato" style="ellipse;whiteSpace=wrap;html=1;align=center;" vertex="1" parent="1">
          <mxGeometry x="630" y="720" width="100" height="40" as="geometry" />
        </mxCell>
        <mxCell id="nCwtWXwidrHt-UqhxLMC-60" value="Tipo de Serviço" style="ellipse;whiteSpace=wrap;html=1;align=center;" vertex="1" parent="1">
          <mxGeometry x="590" y="770" width="100" height="40" as="geometry" />
        </mxCell>
        <mxCell id="nCwtWXwidrHt-UqhxLMC-61" value="Endereço" style="ellipse;whiteSpace=wrap;html=1;align=center;" vertex="1" parent="1">
          <mxGeometry x="480" y="780" width="100" height="40" as="geometry" />
        </mxCell>
        <mxCell id="nCwtWXwidrHt-UqhxLMC-62" value="" style="endArrow=none;html=1;rounded=0;entryX=0;entryY=1;entryDx=0;entryDy=0;" edge="1" parent="1" target="nCwtWXwidrHt-UqhxLMC-57">
          <mxGeometry relative="1" as="geometry">
            <mxPoint x="500" y="720" as="sourcePoint" />
            <mxPoint x="68" y="551" as="targetPoint" />
          </mxGeometry>
        </mxCell>
        <mxCell id="nCwtWXwidrHt-UqhxLMC-63" value="" style="endArrow=none;html=1;rounded=0;exitX=0;exitY=1;exitDx=0;exitDy=0;" edge="1" parent="1" source="nCwtWXwidrHt-UqhxLMC-58">
          <mxGeometry relative="1" as="geometry">
            <mxPoint x="85" y="510" as="sourcePoint" />
            <mxPoint x="500" y="730" as="targetPoint" />
          </mxGeometry>
        </mxCell>
        <mxCell id="nCwtWXwidrHt-UqhxLMC-64" value="" style="endArrow=none;html=1;rounded=0;entryX=1;entryY=0.5;entryDx=0;entryDy=0;exitX=0;exitY=0.5;exitDx=0;exitDy=0;entryPerimeter=0;" edge="1" parent="1" source="nCwtWXwidrHt-UqhxLMC-59" target="nCwtWXwidrHt-UqhxLMC-2">
          <mxGeometry relative="1" as="geometry">
            <mxPoint x="95" y="520" as="sourcePoint" />
            <mxPoint x="88" y="571" as="targetPoint" />
          </mxGeometry>
        </mxCell>
        <mxCell id="nCwtWXwidrHt-UqhxLMC-65" value="" style="endArrow=none;html=1;rounded=0;entryX=1;entryY=0.75;entryDx=0;entryDy=0;exitX=0;exitY=0.5;exitDx=0;exitDy=0;" edge="1" parent="1" source="nCwtWXwidrHt-UqhxLMC-60" target="nCwtWXwidrHt-UqhxLMC-2">
          <mxGeometry relative="1" as="geometry">
            <mxPoint x="105" y="530" as="sourcePoint" />
            <mxPoint x="98" y="581" as="targetPoint" />
          </mxGeometry>
        </mxCell>
        <mxCell id="nCwtWXwidrHt-UqhxLMC-67" value="" style="endArrow=none;html=1;rounded=0;entryX=0.5;entryY=0;entryDx=0;entryDy=0;exitX=1;exitY=1;exitDx=0;exitDy=0;" edge="1" parent="1" source="nCwtWXwidrHt-UqhxLMC-2" target="nCwtWXwidrHt-UqhxLMC-61">
          <mxGeometry relative="1" as="geometry">
            <mxPoint x="115" y="540" as="sourcePoint" />
            <mxPoint x="108" y="591" as="targetPoint" />
          </mxGeometry>
        </mxCell>
        <mxCell id="nCwtWXwidrHt-UqhxLMC-68" value="Id Serviço" style="ellipse;whiteSpace=wrap;html=1;align=center;fontStyle=4;" vertex="1" parent="1">
          <mxGeometry x="-120" y="690" width="100" height="40" as="geometry" />
        </mxCell>
        <mxCell id="nCwtWXwidrHt-UqhxLMC-69" value="Descrição" style="ellipse;whiteSpace=wrap;html=1;align=center;" vertex="1" parent="1">
          <mxGeometry x="-130" y="740" width="100" height="40" as="geometry" />
        </mxCell>
        <mxCell id="nCwtWXwidrHt-UqhxLMC-70" value="Preço" style="ellipse;whiteSpace=wrap;html=1;align=center;" vertex="1" parent="1">
          <mxGeometry x="-90" y="790" width="100" height="40" as="geometry" />
        </mxCell>
        <mxCell id="nCwtWXwidrHt-UqhxLMC-72" value="Id Fornecedor" style="ellipse;whiteSpace=wrap;html=1;align=center;dashed=1;" vertex="1" parent="1">
          <mxGeometry y="820" width="100" height="40" as="geometry" />
        </mxCell>
        <mxCell id="nCwtWXwidrHt-UqhxLMC-73" value="" style="endArrow=none;html=1;rounded=0;entryX=1;entryY=0.5;entryDx=0;entryDy=0;exitX=0;exitY=0.25;exitDx=0;exitDy=0;" edge="1" parent="1" source="nCwtWXwidrHt-UqhxLMC-3" target="nCwtWXwidrHt-UqhxLMC-68">
          <mxGeometry relative="1" as="geometry">
            <mxPoint x="290" y="630" as="sourcePoint" />
            <mxPoint x="450" y="630" as="targetPoint" />
          </mxGeometry>
        </mxCell>
        <mxCell id="nCwtWXwidrHt-UqhxLMC-75" value="" style="endArrow=none;html=1;rounded=0;entryX=1;entryY=0.5;entryDx=0;entryDy=0;exitX=0;exitY=0.5;exitDx=0;exitDy=0;" edge="1" parent="1" source="nCwtWXwidrHt-UqhxLMC-3" target="nCwtWXwidrHt-UqhxLMC-69">
          <mxGeometry relative="1" as="geometry">
            <mxPoint x="50" y="740" as="sourcePoint" />
            <mxPoint x="-10" y="720" as="targetPoint" />
          </mxGeometry>
        </mxCell>
        <mxCell id="nCwtWXwidrHt-UqhxLMC-76" value="" style="endArrow=none;html=1;rounded=0;entryX=1;entryY=0;entryDx=0;entryDy=0;exitX=0;exitY=1;exitDx=0;exitDy=0;" edge="1" parent="1" source="nCwtWXwidrHt-UqhxLMC-3" target="nCwtWXwidrHt-UqhxLMC-70">
          <mxGeometry relative="1" as="geometry">
            <mxPoint x="60" y="750" as="sourcePoint" />
            <mxPoint y="730" as="targetPoint" />
          </mxGeometry>
        </mxCell>
        <mxCell id="nCwtWXwidrHt-UqhxLMC-77" value="" style="endArrow=none;html=1;rounded=0;entryX=0.25;entryY=1;entryDx=0;entryDy=0;exitX=0.44;exitY=-0.05;exitDx=0;exitDy=0;exitPerimeter=0;" edge="1" parent="1" source="nCwtWXwidrHt-UqhxLMC-72" target="nCwtWXwidrHt-UqhxLMC-3">
          <mxGeometry relative="1" as="geometry">
            <mxPoint x="80" y="790" as="sourcePoint" />
            <mxPoint x="10" y="740" as="targetPoint" />
          </mxGeometry>
        </mxCell>
        <mxCell id="nCwtWXwidrHt-UqhxLMC-78" value="Id Pedido" style="ellipse;whiteSpace=wrap;html=1;align=center;fontStyle=4;" vertex="1" parent="1">
          <mxGeometry x="350" y="360" width="100" height="40" as="geometry" />
        </mxCell>
        <mxCell id="nCwtWXwidrHt-UqhxLMC-80" value="Id Cliente" style="ellipse;whiteSpace=wrap;html=1;align=center;dashed=1;" vertex="1" parent="1">
          <mxGeometry x="540" y="410" width="100" height="40" as="geometry" />
        </mxCell>
        <mxCell id="nCwtWXwidrHt-UqhxLMC-82" value="" style="endArrow=none;html=1;rounded=0;entryX=0.5;entryY=1;entryDx=0;entryDy=0;exitX=0.25;exitY=0;exitDx=0;exitDy=0;" edge="1" parent="1" source="nCwtWXwidrHt-UqhxLMC-4" target="nCwtWXwidrHt-UqhxLMC-78">
          <mxGeometry relative="1" as="geometry">
            <mxPoint x="290" y="530" as="sourcePoint" />
            <mxPoint x="450" y="530" as="targetPoint" />
          </mxGeometry>
        </mxCell>
        <mxCell id="nCwtWXwidrHt-UqhxLMC-83" value="" style="endArrow=none;html=1;rounded=0;entryX=0;entryY=1;entryDx=0;entryDy=0;exitX=0.5;exitY=0;exitDx=0;exitDy=0;" edge="1" parent="1" source="nCwtWXwidrHt-UqhxLMC-4" target="nCwtWXwidrHt-UqhxLMC-85">
          <mxGeometry relative="1" as="geometry">
            <mxPoint x="290" y="530" as="sourcePoint" />
            <mxPoint x="504.64466094067257" y="404.1421356237306" as="targetPoint" />
          </mxGeometry>
        </mxCell>
        <mxCell id="nCwtWXwidrHt-UqhxLMC-85" value="Data" style="ellipse;whiteSpace=wrap;html=1;align=center;" vertex="1" parent="1">
          <mxGeometry x="460" y="370" width="100" height="40" as="geometry" />
        </mxCell>
        <mxCell id="nCwtWXwidrHt-UqhxLMC-86" value="" style="endArrow=none;html=1;rounded=0;entryX=0;entryY=0.5;entryDx=0;entryDy=0;exitX=1;exitY=0;exitDx=0;exitDy=0;" edge="1" parent="1" source="nCwtWXwidrHt-UqhxLMC-4" target="nCwtWXwidrHt-UqhxLMC-80">
          <mxGeometry relative="1" as="geometry">
            <mxPoint x="290" y="530" as="sourcePoint" />
            <mxPoint x="450" y="530" as="targetPoint" />
          </mxGeometry>
        </mxCell>
        <mxCell id="nCwtWXwidrHt-UqhxLMC-87" value="Id Pagamento" style="ellipse;whiteSpace=wrap;html=1;align=center;fontStyle=4;" vertex="1" parent="1">
          <mxGeometry x="800" y="480" width="100" height="40" as="geometry" />
        </mxCell>
        <mxCell id="nCwtWXwidrHt-UqhxLMC-88" value="Tipo do Pagamento" style="ellipse;whiteSpace=wrap;html=1;align=center;" vertex="1" parent="1">
          <mxGeometry x="860" y="530" width="100" height="40" as="geometry" />
        </mxCell>
        <mxCell id="nCwtWXwidrHt-UqhxLMC-89" value="Valor" style="ellipse;whiteSpace=wrap;html=1;align=center;" vertex="1" parent="1">
          <mxGeometry x="900" y="570" width="100" height="40" as="geometry" />
        </mxCell>
        <mxCell id="nCwtWXwidrHt-UqhxLMC-90" value="Status" style="ellipse;whiteSpace=wrap;html=1;align=center;" vertex="1" parent="1">
          <mxGeometry x="700" y="470" width="100" height="40" as="geometry" />
        </mxCell>
        <mxCell id="nCwtWXwidrHt-UqhxLMC-91" value="Data" style="ellipse;whiteSpace=wrap;html=1;align=center;" vertex="1" parent="1">
          <mxGeometry x="840" y="620" width="100" height="40" as="geometry" />
        </mxCell>
        <mxCell id="nCwtWXwidrHt-UqhxLMC-92" value="Id Pedido" style="ellipse;whiteSpace=wrap;html=1;align=center;dashed=1;" vertex="1" parent="1">
          <mxGeometry x="727" y="640" width="100" height="40" as="geometry" />
        </mxCell>
        <mxCell id="nCwtWXwidrHt-UqhxLMC-93" value="" style="endArrow=none;html=1;rounded=0;entryX=0.5;entryY=1;entryDx=0;entryDy=0;exitX=0.75;exitY=0;exitDx=0;exitDy=0;" edge="1" parent="1" source="nCwtWXwidrHt-UqhxLMC-5" target="nCwtWXwidrHt-UqhxLMC-90">
          <mxGeometry relative="1" as="geometry">
            <mxPoint x="530" y="530" as="sourcePoint" />
            <mxPoint x="690" y="530" as="targetPoint" />
          </mxGeometry>
        </mxCell>
        <mxCell id="nCwtWXwidrHt-UqhxLMC-94" value="" style="endArrow=none;html=1;rounded=0;entryX=0;entryY=1;entryDx=0;entryDy=0;exitX=1;exitY=0;exitDx=0;exitDy=0;" edge="1" parent="1" source="nCwtWXwidrHt-UqhxLMC-5" target="nCwtWXwidrHt-UqhxLMC-87">
          <mxGeometry relative="1" as="geometry">
            <mxPoint x="530" y="530" as="sourcePoint" />
            <mxPoint x="690" y="530" as="targetPoint" />
          </mxGeometry>
        </mxCell>
        <mxCell id="nCwtWXwidrHt-UqhxLMC-95" value="" style="endArrow=none;html=1;rounded=0;entryX=0;entryY=0.5;entryDx=0;entryDy=0;exitX=1;exitY=0.25;exitDx=0;exitDy=0;" edge="1" parent="1" source="nCwtWXwidrHt-UqhxLMC-5" target="nCwtWXwidrHt-UqhxLMC-88">
          <mxGeometry relative="1" as="geometry">
            <mxPoint x="530" y="530" as="sourcePoint" />
            <mxPoint x="690" y="530" as="targetPoint" />
          </mxGeometry>
        </mxCell>
        <mxCell id="nCwtWXwidrHt-UqhxLMC-96" value="" style="endArrow=none;html=1;rounded=0;entryX=0;entryY=0.5;entryDx=0;entryDy=0;exitX=1;exitY=0.5;exitDx=0;exitDy=0;" edge="1" parent="1" source="nCwtWXwidrHt-UqhxLMC-5" target="nCwtWXwidrHt-UqhxLMC-89">
          <mxGeometry relative="1" as="geometry">
            <mxPoint x="530" y="530" as="sourcePoint" />
            <mxPoint x="690" y="530" as="targetPoint" />
          </mxGeometry>
        </mxCell>
        <mxCell id="nCwtWXwidrHt-UqhxLMC-97" value="" style="endArrow=none;html=1;rounded=0;entryX=0;entryY=0.5;entryDx=0;entryDy=0;exitX=1;exitY=0.75;exitDx=0;exitDy=0;" edge="1" parent="1" source="nCwtWXwidrHt-UqhxLMC-5" target="nCwtWXwidrHt-UqhxLMC-91">
          <mxGeometry relative="1" as="geometry">
            <mxPoint x="530" y="530" as="sourcePoint" />
            <mxPoint x="690" y="530" as="targetPoint" />
          </mxGeometry>
        </mxCell>
        <mxCell id="nCwtWXwidrHt-UqhxLMC-98" value="" style="endArrow=none;html=1;rounded=0;entryX=0.5;entryY=0;entryDx=0;entryDy=0;exitX=0.75;exitY=1;exitDx=0;exitDy=0;" edge="1" parent="1" source="nCwtWXwidrHt-UqhxLMC-5" target="nCwtWXwidrHt-UqhxLMC-92">
          <mxGeometry relative="1" as="geometry">
            <mxPoint x="530" y="530" as="sourcePoint" />
            <mxPoint x="690" y="530" as="targetPoint" />
          </mxGeometry>
        </mxCell>
        <mxCell id="nCwtWXwidrHt-UqhxLMC-101" value="Relationship" style="shape=rhombus;double=1;perimeter=rhombusPerimeter;whiteSpace=wrap;html=1;align=center;" vertex="1" parent="1">
          <mxGeometry x="630" y="190" width="120" height="60" as="geometry" />
        </mxCell>
        <mxCell id="nCwtWXwidrHt-UqhxLMC-102" value="Agência" style="shape=ext;margin=3;double=1;whiteSpace=wrap;html=1;align=center;" vertex="1" parent="1">
          <mxGeometry x="820" y="200" width="100" height="40" as="geometry" />
        </mxCell>
        <mxCell id="nCwtWXwidrHt-UqhxLMC-103" value="" style="endArrow=none;html=1;rounded=0;exitX=1;exitY=0.5;exitDx=0;exitDy=0;entryX=0;entryY=0.5;entryDx=0;entryDy=0;" edge="1" parent="1" source="nCwtWXwidrHt-UqhxLMC-6" target="nCwtWXwidrHt-UqhxLMC-101">
          <mxGeometry relative="1" as="geometry">
            <mxPoint x="530" y="230" as="sourcePoint" />
            <mxPoint x="690" y="230" as="targetPoint" />
          </mxGeometry>
        </mxCell>
        <mxCell id="nCwtWXwidrHt-UqhxLMC-104" value="" style="endArrow=none;html=1;rounded=0;entryX=0;entryY=0.5;entryDx=0;entryDy=0;exitX=1;exitY=0.5;exitDx=0;exitDy=0;" edge="1" parent="1" source="nCwtWXwidrHt-UqhxLMC-101" target="nCwtWXwidrHt-UqhxLMC-102">
          <mxGeometry relative="1" as="geometry">
            <mxPoint x="770" y="200" as="sourcePoint" />
            <mxPoint x="690" y="230" as="targetPoint" />
          </mxGeometry>
        </mxCell>
        <mxCell id="nCwtWXwidrHt-UqhxLMC-105" value="Nome" style="ellipse;whiteSpace=wrap;html=1;align=center;" vertex="1" parent="1">
          <mxGeometry x="530" y="120" width="100" height="40" as="geometry" />
        </mxCell>
        <mxCell id="nCwtWXwidrHt-UqhxLMC-107" value="Id Banco" style="ellipse;whiteSpace=wrap;html=1;align=center;fontStyle=4;" vertex="1" parent="1">
          <mxGeometry x="410" y="120" width="100" height="40" as="geometry" />
        </mxCell>
        <mxCell id="nCwtWXwidrHt-UqhxLMC-108" value="" style="endArrow=none;html=1;rounded=0;exitX=0.5;exitY=1;exitDx=0;exitDy=0;entryX=0.25;entryY=0;entryDx=0;entryDy=0;" edge="1" parent="1" source="nCwtWXwidrHt-UqhxLMC-107" target="nCwtWXwidrHt-UqhxLMC-6">
          <mxGeometry relative="1" as="geometry">
            <mxPoint x="530" y="230" as="sourcePoint" />
            <mxPoint x="690" y="230" as="targetPoint" />
          </mxGeometry>
        </mxCell>
        <mxCell id="nCwtWXwidrHt-UqhxLMC-109" value="" style="endArrow=none;html=1;rounded=0;entryX=0.5;entryY=1;entryDx=0;entryDy=0;exitX=0.75;exitY=0;exitDx=0;exitDy=0;" edge="1" parent="1" source="nCwtWXwidrHt-UqhxLMC-6" target="nCwtWXwidrHt-UqhxLMC-105">
          <mxGeometry relative="1" as="geometry">
            <mxPoint x="530" y="230" as="sourcePoint" />
            <mxPoint x="690" y="230" as="targetPoint" />
          </mxGeometry>
        </mxCell>
        <mxCell id="nCwtWXwidrHt-UqhxLMC-110" value="Id Agencia" style="ellipse;whiteSpace=wrap;html=1;align=center;fontStyle=4;" vertex="1" parent="1">
          <mxGeometry x="920" y="150" width="100" height="40" as="geometry" />
        </mxCell>
        <mxCell id="nCwtWXwidrHt-UqhxLMC-111" value="Número" style="ellipse;whiteSpace=wrap;html=1;align=center;" vertex="1" parent="1">
          <mxGeometry x="990" y="200" width="100" height="40" as="geometry" />
        </mxCell>
        <mxCell id="nCwtWXwidrHt-UqhxLMC-112" value="Endereço" style="ellipse;whiteSpace=wrap;html=1;align=center;" vertex="1" parent="1">
          <mxGeometry x="930" y="250" width="100" height="40" as="geometry" />
        </mxCell>
        <mxCell id="nCwtWXwidrHt-UqhxLMC-113" value="" style="endArrow=none;html=1;rounded=0;entryX=0;entryY=1;entryDx=0;entryDy=0;exitX=1;exitY=0;exitDx=0;exitDy=0;" edge="1" parent="1" source="nCwtWXwidrHt-UqhxLMC-102" target="nCwtWXwidrHt-UqhxLMC-110">
          <mxGeometry relative="1" as="geometry">
            <mxPoint x="530" y="230" as="sourcePoint" />
            <mxPoint x="690" y="230" as="targetPoint" />
          </mxGeometry>
        </mxCell>
        <mxCell id="nCwtWXwidrHt-UqhxLMC-114" value="" style="endArrow=none;html=1;rounded=0;exitX=0;exitY=0.5;exitDx=0;exitDy=0;" edge="1" parent="1" source="nCwtWXwidrHt-UqhxLMC-111">
          <mxGeometry relative="1" as="geometry">
            <mxPoint x="530" y="230" as="sourcePoint" />
            <mxPoint x="920" y="220" as="targetPoint" />
          </mxGeometry>
        </mxCell>
        <mxCell id="nCwtWXwidrHt-UqhxLMC-115" value="" style="endArrow=none;html=1;rounded=0;entryX=1;entryY=1;entryDx=0;entryDy=0;exitX=0;exitY=0;exitDx=0;exitDy=0;" edge="1" parent="1" source="nCwtWXwidrHt-UqhxLMC-112" target="nCwtWXwidrHt-UqhxLMC-102">
          <mxGeometry relative="1" as="geometry">
            <mxPoint x="530" y="230" as="sourcePoint" />
            <mxPoint x="690" y="230" as="targetPoint" />
          </mxGeometry>
        </mxCell>
        <mxCell id="nCwtWXwidrHt-UqhxLMC-118" value="N" style="text;strokeColor=none;fillColor=none;spacingLeft=4;spacingRight=4;overflow=hidden;rotatable=0;points=[[0,0.5],[1,0.5]];portConstraint=eastwest;fontSize=12;whiteSpace=wrap;html=1;" vertex="1" parent="1">
          <mxGeometry x="800" y="200" width="20" height="20" as="geometry" />
        </mxCell>
        <mxCell id="nCwtWXwidrHt-UqhxLMC-119" value="1" style="text;strokeColor=none;fillColor=none;spacingLeft=4;spacingRight=4;overflow=hidden;rotatable=0;points=[[0,0.5],[1,0.5]];portConstraint=eastwest;fontSize=12;whiteSpace=wrap;html=1;" vertex="1" parent="1">
          <mxGeometry x="560" y="200" width="30" height="15" as="geometry" />
        </mxCell>
        <mxCell id="nCwtWXwidrHt-UqhxLMC-120" value="Id Cobrança" style="ellipse;whiteSpace=wrap;html=1;align=center;fontStyle=4;" vertex="1" parent="1">
          <mxGeometry x="-150" y="150" width="100" height="40" as="geometry" />
        </mxCell>
        <mxCell id="nCwtWXwidrHt-UqhxLMC-121" value="Status" style="ellipse;whiteSpace=wrap;html=1;align=center;" vertex="1" parent="1">
          <mxGeometry y="70" width="100" height="40" as="geometry" />
        </mxCell>
        <mxCell id="nCwtWXwidrHt-UqhxLMC-122" value="Data Vencimento" style="ellipse;whiteSpace=wrap;html=1;align=center;" vertex="1" parent="1">
          <mxGeometry x="-90" y="100" width="100" height="40" as="geometry" />
        </mxCell>
        <mxCell id="nCwtWXwidrHt-UqhxLMC-123" value="Valor" style="ellipse;whiteSpace=wrap;html=1;align=center;" vertex="1" parent="1">
          <mxGeometry x="-100" y="210" width="100" height="40" as="geometry" />
        </mxCell>
        <mxCell id="nCwtWXwidrHt-UqhxLMC-124" value="Id Banco" style="ellipse;whiteSpace=wrap;html=1;align=center;dashed=1;" vertex="1" parent="1">
          <mxGeometry x="110" y="90" width="100" height="40" as="geometry" />
        </mxCell>
        <mxCell id="nCwtWXwidrHt-UqhxLMC-125" value="Id Cliente" style="ellipse;whiteSpace=wrap;html=1;align=center;dashed=1;" vertex="1" parent="1">
          <mxGeometry x="-50" y="270" width="100" height="40" as="geometry" />
        </mxCell>
        <mxCell id="nCwtWXwidrHt-UqhxLMC-127" value="" style="endArrow=none;html=1;rounded=0;exitX=0.5;exitY=1;exitDx=0;exitDy=0;entryX=0.25;entryY=0;entryDx=0;entryDy=0;" edge="1" parent="1" source="nCwtWXwidrHt-UqhxLMC-121" target="nCwtWXwidrHt-UqhxLMC-7">
          <mxGeometry relative="1" as="geometry">
            <mxPoint x="120" y="230" as="sourcePoint" />
            <mxPoint x="280" y="230" as="targetPoint" />
          </mxGeometry>
        </mxCell>
        <mxCell id="nCwtWXwidrHt-UqhxLMC-128" value="" style="endArrow=none;html=1;rounded=0;exitX=1;exitY=0.5;exitDx=0;exitDy=0;entryX=0;entryY=0.5;entryDx=0;entryDy=0;" edge="1" parent="1" source="nCwtWXwidrHt-UqhxLMC-120" target="nCwtWXwidrHt-UqhxLMC-7">
          <mxGeometry relative="1" as="geometry">
            <mxPoint x="-30" y="200" as="sourcePoint" />
            <mxPoint x="280" y="230" as="targetPoint" />
          </mxGeometry>
        </mxCell>
        <mxCell id="nCwtWXwidrHt-UqhxLMC-129" value="" style="endArrow=none;html=1;rounded=0;exitX=1;exitY=0.5;exitDx=0;exitDy=0;entryX=0;entryY=0.75;entryDx=0;entryDy=0;" edge="1" parent="1" source="nCwtWXwidrHt-UqhxLMC-123" target="nCwtWXwidrHt-UqhxLMC-7">
          <mxGeometry relative="1" as="geometry">
            <mxPoint x="120" y="230" as="sourcePoint" />
            <mxPoint x="30" y="230" as="targetPoint" />
          </mxGeometry>
        </mxCell>
        <mxCell id="nCwtWXwidrHt-UqhxLMC-130" value="" style="endArrow=none;html=1;rounded=0;exitX=1;exitY=0;exitDx=0;exitDy=0;entryX=0.25;entryY=1;entryDx=0;entryDy=0;" edge="1" parent="1" source="nCwtWXwidrHt-UqhxLMC-125" target="nCwtWXwidrHt-UqhxLMC-7">
          <mxGeometry relative="1" as="geometry">
            <mxPoint x="120" y="230" as="sourcePoint" />
            <mxPoint x="280" y="230" as="targetPoint" />
          </mxGeometry>
        </mxCell>
        <mxCell id="nCwtWXwidrHt-UqhxLMC-131" value="" style="endArrow=none;html=1;rounded=0;exitX=1;exitY=1;exitDx=0;exitDy=0;entryX=0;entryY=0;entryDx=0;entryDy=0;" edge="1" parent="1" source="nCwtWXwidrHt-UqhxLMC-122" target="nCwtWXwidrHt-UqhxLMC-7">
          <mxGeometry relative="1" as="geometry">
            <mxPoint x="120" y="230" as="sourcePoint" />
            <mxPoint x="280" y="230" as="targetPoint" />
          </mxGeometry>
        </mxCell>
        <mxCell id="nCwtWXwidrHt-UqhxLMC-132" value="" style="endArrow=none;html=1;rounded=0;exitX=0;exitY=1;exitDx=0;exitDy=0;entryX=0.5;entryY=0;entryDx=0;entryDy=0;" edge="1" parent="1" source="nCwtWXwidrHt-UqhxLMC-124" target="nCwtWXwidrHt-UqhxLMC-7">
          <mxGeometry relative="1" as="geometry">
            <mxPoint x="120" y="230" as="sourcePoint" />
            <mxPoint x="280" y="230" as="targetPoint" />
          </mxGeometry>
        </mxCell>
      </root>
    </mxGraphModel>
  </diagram>
</mxfile>
